<?xml version="1.0" encoding="UTF-8"?>
<svg xmlns="http://www.w3.org/2000/svg" xmlns:xlink="http://www.w3.org/1999/xlink" width="50px" height="50px" viewBox="0 0 50 50" version="1.1">
<g id="surface1">
<path style=" stroke:none;fill-rule:nonzero;fill:rgb(0%,51.764706%,98.823529%);fill-opacity:1;" d="M 9.296875 9.503906 C 9.347656 9.5625 10.054688 10.070312 10.890625 10.605469 C 12.652344 11.820312 14.121094 13.597656 15.078125 15.65625 C 15.6875 16.984375 15.761719 17.464844 15.761719 19.691406 C 15.738281 22.542969 15.199219 24.320312 13.582031 26.777344 C 12.113281 29.003906 12.1875 31.035156 13.777344 32.335938 C 14.539062 32.957031 14.539062 32.957031 26.097656 32.871094 L 37.65625 32.816406 L 37.191406 31.882812 C 36.503906 30.613281 36.578125 29.90625 37.535156 28.214844 C 38 27.425781 38.683594 25.730469 39.050781 24.488281 C 39.613281 22.542969 39.6875 21.894531 39.589844 19.550781 C 39.515625 17.210938 39.417969 16.671875 38.808594 15.460938 C 37.949219 13.765625 36.652344 12.328125 34.496094 10.632812 L 32.90625 9.394531 L 21.050781 9.394531 C 14.539062 9.394531 9.25 9.449219 9.296875 9.503906 Z M 22.523438 19.691406 C 23.480469 19.972656 25.191406 14.894531 25.191406 15.628906 C 25.191406 16.589844 25.191406 16.617188 24.164062 15.882812 C 22.203125 14.527344 20.074219 15.828125 20.757812 17.941406 C 21.167969 21.101562 26.675781 20.515625 24.53125 24.773438 C 19.246094 16.3125 21.835938 25.589844 20.539062 25.140625 C 19.558594 24.800781 19.4375 24.660156 19.363281 23.839844 L 20.75 31.175781 C 20.847656 28.964844 30.5625 21.5 25.324219 18.625 C 23.5625 18.203125 27.492188 15.769531 27.148438 14.472656 C 26.78125 13.003906 20.527344 19.34375 21.65625 18.695312 C 22.632812 18.128906 21.03125 19.269531 22.523438 19.691406 Z M 29.085938 15.941406 C 29.402344 16.757812 29.917969 18.140625 30.261719 18.988281 C 30.871094 20.484375 30.898438 20.511719 31.140625 19.832031 C 31.265625 19.4375 31.804688 18.085938 32.316406 16.785156 C 33.175781 14.640625 33.296875 14.472656 34.007812 14.472656 L 17.261719 14.578125 L 20.75 31.175781 L 34.742188 25.195312 L 24.59375 28.585938 L 33.515625 25.195312 L 33.515625 21.105469 C 33.515625 18.761719 33.417969 17.011719 33.296875 17.011719 C 33.175781 17.011719 32.832031 17.71875 32.5625 18.5625 C 31.804688 20.878906 31.09375 22.375 30.75 22.375 C 30.480469 22.34375 28.621094 18 28.621094 17.320312 C 28.621094 17.152344 28.519531 17.011719 28.375 17.011719 C 28.226562 17.011719 28.128906 18.5625 28.128906 21.105469 C 28.128906 24.996094 28.105469 25.195312 27.640625 25.195312 C 27.175781 25.195312 27.148438 24.996094 27.148438 19.832031 L 27.148438 14.472656 L 27.730469 16.695312 C 27.882812 17.289062 28.621094 14.667969 29.085938 15.941406 Z M 29.085938 15.941406 "/>
<path style=" stroke:none;fill-rule:nonzero;fill:rgb(0%,61.176471%,98.823529%);fill-opacity:1;" d="M 4.277344 12.015625 C 2.734375 12.976562 1.65625 14.414062 0.898438 16.53125 C 0.359375 18.054688 0.332031 21.554688 0.824219 23.25 C 1.828125 26.632812 4.546875 29.003906 7.386719 28.949219 C 9.222656 28.921875 10.449219 28.355469 11.820312 26.886719 C 14.929688 23.585938 15.125 17.351562 12.234375 13.570312 C 11.035156 11.988281 9.25 11.085938 7.339844 11.085938 C 5.992188 11.085938 5.476562 11.253906 4.277344 12.015625 Z M 12.425781 16.40625 C 13.40625 16.6875 10.007812 14.894531 10.007812 15.65625 C 10.007812 16.503906 9.984375 16.503906 9.417969 16.082031 C 7.949219 14.980469 5.746094 15.289062 5.453125 16.644531 C 5.230469 17.632812 5.722656 18.648438 6.503906 18.875 C 8.613281 19.410156 7.902344 21.042969 8.566406 21.804688 C 9.203125 22.539062 2.496094 15.695312 2.371094 16.710938 C 2.273438 17.5 9.925781 25.972656 9.433594 26.566406 C 8.75 27.355469 9.378906 12.730469 7.980469 12.730469 C 6.023438 12.730469 5.929688 23.210938 5.929688 22.308594 C 5.929688 21.488281 4.253906 23.078125 5.476562 23.785156 C 6.800781 24.574219 7.925781 24.519531 8.660156 23.644531 C 9.859375 22.289062 9.199219 20.960938 7.042969 20.425781 C 5.304688 19.976562 9.777344 27.863281 9.433594 26.566406 C 9.214844 25.691406 10.933594 21.164062 11.253906 20.316406 C 11.863281 18.625 10.125 15.757812 12.425781 16.40625 Z M 12.425781 16.40625 "/>
<path style=" stroke:none;fill-rule:nonzero;fill:rgb(0%,56.470588%,98.823529%);fill-opacity:1;" d="M 16.277344 33.914062 C 16.398438 34.027344 17.746094 35.042969 19.265625 36.171875 L 22.03125 38.175781 L 33.320312 38.175781 C 42.75 38.175781 44.585938 38.121094 44.292969 37.808594 C 44.097656 37.582031 42.75 36.566406 41.328125 35.550781 L 38.734375 33.660156 L 27.371094 33.660156 C 20.929688 33.660156 16.128906 33.773438 16.277344 33.914062 Z M 16.277344 33.914062 "/>
<path style=" stroke:none;fill-rule:nonzero;fill:rgb(0%,61.176471%,98.823529%);fill-opacity:1;" d="M 23.230469 39.164062 C 23.230469 39.25 23.992188 39.871094 24.898438 40.574219 L 26.5625 41.84375 L 38.121094 41.789062 L 49.679688 41.703125 L 47.746094 40.347656 L 45.8125 39.023438 L 34.519531 39.023438 C 28.300781 39.023438 23.230469 39.078125 23.230469 39.164062 Z M 23.230469 39.164062 "/>
</g>
</svg>
